<?xml version="1.0" standalone="no"?>
<!DOCTYPE svg PUBLIC "-//W3C//DTD SVG 20010904//EN"
 "http://www.w3.org/TR/2001/REC-SVG-20010904/DTD/svg10.dtd">
<svg version="1.0" xmlns="http://www.w3.org/2000/svg"
 width="144.000000pt" height="144.000000pt" viewBox="0 0 144.000000 144.000000"
 preserveAspectRatio="xMidYMid meet">
<metadata>
Created by potrace 1.13, written by Peter Selinger 2001-2015
</metadata>
<g transform="translate(0.000000,144.000000) scale(0.100000,-0.100000)"
fill="#000000" stroke="none">
<path d="M927 1343 c-13 -12 -7 -48 13 -80 11 -18 17 -40 14 -48 -5 -12 -12
-10 -36 14 -28 27 -74 48 -85 38 -2 -3 6 -22 19 -42 l22 -38 -25 7 c-124 38
-251 47 -344 23 -35 -10 -62 -10 -92 -3 -47 10 -176 -8 -192 -28 -12 -14 10
-79 39 -119 22 -29 22 -29 2 -50 -37 -41 -64 -109 -66 -165 -1 -49 2 -56 34
-85 35 -31 35 -31 38 -8 l4 23 13 -25 c16 -31 10 -62 -34 -177 -29 -73 -32
-94 -29 -157 3 -56 9 -79 27 -103 l23 -32 -27 -60 c-30 -67 -42 -159 -27 -198
8 -18 11 -20 11 -7 1 24 18 21 24 -5 4 -12 8 -20 11 -17 3 3 0 24 -7 47 -11
37 -14 39 -25 24 -23 -31 -3 87 25 150 l25 57 39 -20 c44 -22 44 -24 25 -70
-8 -19 -19 -63 -26 -97 -6 -35 -14 -70 -17 -78 -3 -8 -1 -14 4 -14 5 0 15 27
21 60 11 49 16 60 33 60 13 0 18 -4 13 -12 -4 -6 -3 -8 3 -5 10 6 68 -19 105
-45 15 -11 13 -14 -20 -35 l-37 -22 359 -1 c353 0 358 0 353 20 -3 11 -1 20 4
20 5 0 9 -9 9 -20 0 -11 5 -20 10 -20 15 0 12 14 -10 62 -11 24 -33 78 -50
121 l-30 79 21 29 c33 47 34 94 5 173 -18 47 -26 87 -26 130 1 58 2 62 35 83
l35 22 10 -42 c26 -103 65 -182 140 -282 94 -126 122 -181 118 -232 l-3 -38
-19 35 -19 35 -14 -58 c-7 -32 -17 -66 -23 -75 -8 -15 -9 -14 -10 6 0 33 -14
27 -34 -15 l-18 -38 23 20 c19 17 22 18 16 3 -4 -12 -1 -18 7 -18 14 0 38 50
52 110 l8 35 11 -40 12 -40 13 25 c19 35 15 101 -8 146 -11 21 -55 86 -97 144
-92 126 -95 132 -129 239 -23 72 -25 89 -15 113 7 17 10 56 7 98 -4 48 -2 70
6 70 13 1 86 158 86 187 0 16 -14 25 -62 43 -62 22 -80 22 -154 -7 -8 -3 -14
-1 -14 5 0 5 12 13 26 16 21 6 24 9 14 21 -7 8 -28 17 -49 21 -54 9 -61 12
-56 27 4 8 18 12 40 9 42 -5 85 20 85 48 0 26 -34 34 -72 16 -39 -20 -38 -20
-38 8 0 13 -3 31 -6 40 -6 16 -35 22 -47 9z m-9 -138 c11 -14 29 -25 40 -25
31 0 82 -12 82 -19 0 -4 -13 -12 -30 -18 -16 -6 -30 -17 -30 -23 0 -7 7 -10
16 -6 22 8 65 -17 107 -63 53 -58 90 -135 47 -96 -28 26 -33 15 -14 -36 24
-68 24 -161 -2 -195 -27 -37 -48 -44 -40 -13 7 23 6 23 -8 5 -15 -18 -36 -99
-36 -137 0 -11 14 -61 30 -112 30 -89 30 -93 15 -134 -22 -58 -42 -73 -37 -27
3 27 -4 48 -32 93 -59 96 -68 184 -30 294 13 39 13 40 -2 22 -16 -19 -16 -19
-9 5 4 14 14 38 22 53 8 16 12 31 10 34 -3 3 -12 -8 -21 -24 l-15 -28 -16 39
c-9 22 -19 55 -22 73 -3 18 -10 36 -14 39 -5 3 -7 -8 -4 -23 2 -15 6 -46 9
-68 l5 -40 -20 25 c-10 14 -25 44 -31 68 -12 41 -31 59 -27 25 1 -10 1 -31 0
-48 l-2 -30 -25 30 c-13 17 -27 40 -30 53 -8 30 -16 28 -38 -13 -11 -19 -26
-41 -34 -48 -13 -11 -15 -2 -9 68 l6 80 -18 -60 c-19 -68 -33 -96 -55 -114
-22 -19 -36 15 -43 109 -6 84 -27 114 -22 33 2 -55 -10 -133 -21 -133 -23 0
-53 41 -65 90 -13 53 -13 54 -14 17 -1 -21 -6 -48 -12 -59 -16 -30 -28 -6 -30
57 -1 28 -3 41 -6 30 -2 -11 -13 -45 -23 -75 -11 -30 -21 -66 -23 -80 -3 -24
-5 -23 -20 12 -14 31 -15 46 -7 84 6 26 15 55 21 66 6 11 8 22 6 25 -10 9 -36
-54 -42 -98 -5 -39 -17 -89 -32 -139 -9 -30 -35 22 -31 63 5 49 -9 47 -31 -5
l-18 -42 -18 27 c-38 58 0 173 82 253 l45 44 -34 0 c-32 0 -32 1 32 40 148 91
307 109 478 54 29 -10 55 -14 58 -11 3 3 -1 20 -10 38 -9 18 -16 34 -16 36 0
10 41 -20 58 -42z m-77 -393 c20 -24 45 -21 35 4 -10 26 9 14 29 -19 11 -18
30 -36 41 -41 20 -9 21 -15 16 -100 -3 -59 -10 -97 -19 -108 -21 -24 -107 -58
-164 -65 -50 -6 -79 -23 -39 -23 21 0 20 -1 -7 -40 -15 -22 -31 -40 -34 -40
-3 0 -27 16 -53 36 -26 20 -50 34 -52 31 -3 -3 15 -19 40 -36 47 -33 64 -51
47 -51 -5 0 -34 22 -64 50 -65 60 -87 67 -32 10 23 -24 33 -40 25 -40 -13 0
-13 -2 -1 -9 7 -5 11 -13 8 -18 -3 -5 3 -10 14 -10 24 -2 24 6 2 23 -10 7 -15
14 -12 14 3 0 20 -11 37 -24 30 -22 31 -24 12 -29 -26 -7 -82 11 -74 24 3 5 0
9 -5 9 -6 0 -23 24 -38 53 -38 70 -39 74 -20 58 13 -10 17 -10 17 -1 0 9 4 9
13 2 6 -5 21 -6 32 -2 16 6 7 11 -40 25 -145 42 -205 106 -205 217 0 70 10 84
35 55 l20 -22 3 25 c2 14 8 43 14 65 l10 40 14 -28 c18 -34 44 -36 44 -2 0 24
1 24 40 -15 22 -22 45 -40 50 -40 6 0 13 14 17 31 l6 31 12 -30 c19 -43 30
-46 58 -12 28 32 40 39 31 16 -12 -32 17 -24 48 14 l33 40 18 -23 c10 -12 27
-32 38 -45z m-507 -150 c0 -20 -5 -73 -12 -117 -14 -89 -9 -144 20 -223 11
-29 18 -56 15 -58 -9 -9 -64 25 -86 52 -29 36 -44 100 -37 149 4 22 23 88 43
148 38 110 57 127 57 49z m116 -146 c25 -14 39 -26 33 -26 -7 0 -13 -7 -13
-15 0 -9 -7 -30 -16 -48 -10 -17 -18 -41 -19 -52 -1 -11 -3 -23 -4 -27 0 -3
-10 -4 -21 -1 -16 4 -20 0 -20 -18 0 -13 -4 -30 -9 -37 -12 -20 -51 106 -41
133 4 12 11 51 15 89 l7 67 22 -20 c11 -11 41 -31 66 -45z"/>
</g>
</svg>
